<svg xmlns="http://www.w3.org/2000/svg" enable-background="new 0 0 24 24" height="24" width="24" style=""><rect id="backgroundrect" width="100%" height="100%" x="0" y="0" fill="none" stroke="none"/><g class="currentLayer" style=""><title>Layer 1</title><path d="m12 0c-6.617 0-12 5.383-12 12s5.383 12 12 12 12-5.383 12-12-5.383-12-12-12z" fill="#d43a2f" id="svg_1" class="" fill-opacity="1"/><path d="m16.419 15.006c.391.391.391 1.023 0 1.414-.195.195-.451.293-.707.293s-.512-.098-.707-.293l-3.005-3.006-3.005 3.006c-.195.195-.451.293-.707.293s-.512-.098-.707-.293c-.391-.391-.391-1.023 0-1.414l3.005-3.006-3.005-3.006c-.391-.391-.391-1.023 0-1.414s1.023-.391 1.414 0l3.005 3.006 3.005-3.006c.391-.391 1.023-.391 1.414 0s.391 1.023 0 1.414l-3.005 3.006z" fill="#fafafa" id="svg_2"/><path d="m12 0c-6.617 0-12 5.383-12 12s5.383 12 12 12v-10.586l-3.005 3.006c-.195.195-.451.293-.707.293s-.512-.098-.707-.293c-.391-.391-.391-1.023 0-1.414l3.005-3.006-3.005-3.006c-.391-.391-.391-1.023 0-1.414.195-.195.451-.293.707-.293s.511.098.707.293l3.005 3.006z" fill="#d43a2f" id="svg_3"/><path d="m8.288 7.287c-.256 0-.512.098-.707.293-.391.391-.391 1.023 0 1.414l3.005 3.006-3.005 3.006c-.391.391-.391 1.023 0 1.414.195.195.451.293.707.293s.512-.098.707-.293l3.005-3.006v-2.828l-3.005-3.006c-.196-.195-.452-.293-.707-.293z" fill="#ffffff" id="svg_4" class="" fill-opacity="1"/></g></svg>