<svg xmlns="http://www.w3.org/2000/svg" enable-background="new 0 0 515.555 515.555" height="515.5549926757812" width="515.5549926757812" style=""><rect id="backgroundrect" width="100%" height="100%" x="0" y="0" fill="none" stroke="none"/><g class="currentLayer" style=""><title>Layer 1</title><path d="m496.679 212.208c25.167 25.167 25.167 65.971 0 91.138s-65.971 25.167-91.138 0-25.167-65.971 0-91.138 65.971-25.167 91.138 0" id="svg_1" class="" fill-opacity="1" fill="#202833"/><path d="m303.347 212.208c25.167 25.167 25.167 65.971 0 91.138s-65.971 25.167-91.138 0-25.167-65.971 0-91.138 65.971-25.167 91.138 0" id="svg_2" class="selected" fill-opacity="1" fill="#202833"/><path d="m110.014 212.208c25.167 25.167 25.167 65.971 0 91.138s-65.971 25.167-91.138 0-25.167-65.971 0-91.138 65.971-25.167 91.138 0" id="svg_3" class="" fill-opacity="1" fill="#202833"/></g></svg>